<svg xmlns="http://www.w3.org/2000/svg" xmlns:xlink="http://www.w3.org/1999/xlink" width="100" height="100" viewBox="0 0 100 100">
  <defs>
    <linearGradient id="linear-gradient" y1="0.471" x2="1" y2="0.471" gradientUnits="objectBoundingBox">
      <stop offset="0" stop-color="#E8E8E859"/>
      <stop offset="0.492" stop-color="#E8E8E859"/>
      <stop offset="1" stop-color="#E8E8E859"/>
    </linearGradient>
  </defs>
  <g id="Grupo_926" data-name="Grupo 926" transform="translate(-24 -230)">
    <path id="Caminho_26" data-name="Caminho 26" d="M50,0A50,50,0,1,1,0,50H0A50,50,0,0,1,50,0Z" transform="translate(24 230)" fill="url(#linear-gradient)"/>
    <g id="user" transform="translate(47 251)">
      <g id="Grupo_925" data-name="Grupo 925" transform="translate(0)">
        <path id="Caminho_447" data-name="Caminho 447" d="M54.846,47.116a2.148,2.148,0,0,0-4.206.876,2.244,2.244,0,0,1-.455,1.881,2.182,2.182,0,0,1-1.718.817H6.518A2.182,2.182,0,0,1,4.8,49.873a2.244,2.244,0,0,1-.455-1.881A23.731,23.731,0,0,1,26.924,29.2q.283.011.569.011t.572-.011A23.628,23.628,0,0,1,47.147,39.688,2.148,2.148,0,1,0,50.715,37.3a27.938,27.938,0,0,0-14.477-11,14.605,14.605,0,1,0-17.483,0A27.936,27.936,0,0,0,.14,47.116a6.525,6.525,0,0,0,6.379,7.87H48.467a6.526,6.526,0,0,0,6.379-7.87ZM17.183,14.605A10.31,10.31,0,1,1,28.015,24.9q-.26,0-.522,0t-.52,0A10.323,10.323,0,0,1,17.183,14.605Z" transform="translate(0)" fill="#f5f5f5"/>
      </g>
    </g>
  </g>
</svg>
